# xmcd CD database file
#
# Track frame offsets:
#	150
#	19987
#	41454
#	64543
#	89412
#	108529
#	126526
#	149535
#	166844
#	185882
#	209529
#	233465
#
# Disc length: 3348 seconds
#
# Revision: 2
# Processed by: cddbd v1.5.2PL0 Copyright (c) Steve Scherf et al.
# Submitted via: CDex 1.51
#
DISCID=ae0d120c
DTITLE=Eleven of Hearts - One Love
DYEAR=1900
DGENRE=
TTITLE0=One Love
TTITLE1=Knight of Love
TTITLE2=Salute
TTITLE3=Ishtar
TTITLE4=Light of Emotion
TTITLE5=Wave
TTITLE6=A Breath Away
TTITLE7=The Summer Sea
TTITLE8=Moment to Moment
TTITLE9=Loves Shadow
TTITLE10=Jupiter
TTITLE11=HK Boogie
EXTD=
EXTT0=
EXTT1=
EXTT2=
EXTT3=
EXTT4=
EXTT5=
EXTT6=
EXTT7=
EXTT8=
EXTT9=
EXTT10=
EXTT11=
PLAYORDER=
